<svg viewBox="0 0 100 100" fill="none" xmlns="http://www.w3.org/2000/svg">
  <defs>
    <mask id="mountain-cutout">
      <rect width="100" height="100" fill="white" />
      <path d="M 0 100 L 0 71 L 16 71 L 24 62 L 27 66 L 35 54 L 43 64 L 51 40 L 55 48 L 57 45 L 63 56 L 69 48 L 76 60 L 80 56 L 84 71 L 100 71 L 100 100 Z" fill="black" />
    </mask>
  </defs>
  <g mask="url(#mountain-cutout)">
    <circle cx="50" cy="50" r="40" stroke="#FFFFFF" strokeWidth="2" fill="none" />
    <path d="M 18 35 L 40 35 L 56 75 L 34 75 Z" fill="#FFFFFF" />
    <path d="M 82 35 L 60 35 L 44 75 L 66 75 Z" fill="#FFFFFF" />
  </g>
  <path d="M 16 71 L 24 62 L 27 66 L 35 54 L 43 64 L 51 40 L 55 48 L 57 45 L 63 56 L 69 48 L 76 60 L 80 56 L 84 71" stroke="#FFFFFF" strokeWidth="2" fill="none" strokeLinejoin="round" strokeLinecap="round" />
</svg>
